HIERARCHY
ROOT Root
{
  OFFSET 0.0 0.0 0.0
  CHANNELS 6 Xposition Yposition Zposition Zrotation Yrotation Xrotation
  JOINT Hips
  {
    OFFSET 0.0 100.0 0.0
    CHANNELS 6 Xposition Yposition Zposition Zrotation Yrotation Xrotation
    JOINT Spine1
    {
      OFFSET 5.003913 -0.037094 -0.013727
      CHANNELS 3 Zrotation Yrotation Xrotation
      JOINT Spine2
      {
        OFFSET 7.125363 -1e-06 0.0
        CHANNELS 3 Zrotation Yrotation Xrotation
        JOINT Chest
        {
          OFFSET 7.594027 1e-06 0.0
          CHANNELS 3 Zrotation Yrotation Xrotation
          JOINT Neck1
          {
            OFFSET 26.313086 -0.460272 -0.181672
            CHANNELS 3 Zrotation Yrotation Xrotation
            JOINT Neck2
            {
              OFFSET 8.045911 0.0 0.0
              CHANNELS 3 Zrotation Yrotation Xrotation
              JOINT Head
              {
                OFFSET 6.432774 0.0 0.0
                CHANNELS 3 Zrotation Yrotation Xrotation
                JOINT HeadEnd
                {
                  OFFSET 16.169773 0.06451 0.00362
                  CHANNELS 3 Zrotation Yrotation Xrotation
                }
                JOINT Jaw
                {
                  OFFSET 0.108741 3.12938 0.002639
                  CHANNELS 3 Zrotation Yrotation Xrotation
                }
                JOINT LeftEye
                {
                  OFFSET 4.45173 8.166359 3.206392
                  CHANNELS 3 Zrotation Yrotation Xrotation
                }
                JOINT RightEye
                {
                  OFFSET 4.436895 8.135758 -3.222429
                  CHANNELS 3 Zrotation Yrotation Xrotation
                }
              }
            }
          }
          JOINT LeftShoulder
          {
            OFFSET 23.218927 5.195579 1.621656
            CHANNELS 3 Zrotation Yrotation Xrotation
            JOINT LeftArm
            {
              OFFSET 15.902118 2e-06 -2e-06
              CHANNELS 3 Zrotation Yrotation Xrotation
              JOINT LeftForeArm
              {
                OFFSET 28.739307 0.0 -1e-06
                CHANNELS 3 Zrotation Yrotation Xrotation
                JOINT LeftHand
                {
                  OFFSET 27.093981 -4e-06 0.0
                  CHANNELS 3 Zrotation Yrotation Xrotation
                  JOINT LeftHandThumb1
                  {
                    OFFSET 2.276781 3.380274 0.83384
                    CHANNELS 3 Zrotation Yrotation Xrotation
                    JOINT LeftHandThumb2
                    {
                      OFFSET 4.705309 -1e-06 -1e-06
                      CHANNELS 3 Zrotation Yrotation Xrotation
                      JOINT LeftHandThumb3
                      {
                        OFFSET 2.798515 0.0 3e-06
                        CHANNELS 3 Zrotation Yrotation Xrotation
                        JOINT LeftHandThumbEnd
                        {
                          OFFSET 3.180793 4e-06 -4e-06
                          CHANNELS 3 Zrotation Yrotation Xrotation
                        }
                      }
                    }
                  }
                  JOINT LeftHandIndex1
                  {
                    OFFSET 3.247786 2.352677 0.137192
                    CHANNELS 3 Zrotation Yrotation Xrotation
                    JOINT LeftHandIndex2
                    {
                      OFFSET 6.367095 1e-06 0.0
                      CHANNELS 3 Zrotation Yrotation Xrotation
                      JOINT LeftHandIndex3
                      {
                        OFFSET 3.662364 0.0 0.0
                        CHANNELS 3 Zrotation Yrotation Xrotation
                        JOINT LeftHandIndex4
                        {
                          OFFSET 2.329242 4e-06 -4e-06
                          CHANNELS 3 Zrotation Yrotation Xrotation
                          JOINT LeftHandIndexEnd
                          {
                            OFFSET 2.767823 1e-06 0.0
                            CHANNELS 3 Zrotation Yrotation Xrotation
                          }
                        }
                      }
                    }
                  }
                  JOINT LeftHandMiddle1
                  {
                    OFFSET 3.163612 0.945023 -0.406112
                    CHANNELS 3 Zrotation Yrotation Xrotation
                    JOINT LeftHandMiddle2
                    {
                      OFFSET 6.276789 3e-06 0.0
                      CHANNELS 3 Zrotation Yrotation Xrotation
                      JOINT LeftHandMiddle3
                      {
                        OFFSET 4.35652 -1e-06 4e-06
                        CHANNELS 3 Zrotation Yrotation Xrotation
                        JOINT LeftHandMiddle4
                        {
                          OFFSET 2.996877 0.0 8e-06
                          CHANNELS 3 Zrotation Yrotation Xrotation
                          JOINT LeftHandMiddleEnd
                          {
                            OFFSET 2.323256 3e-06 -4e-06
                            CHANNELS 3 Zrotation Yrotation Xrotation
                          }
                        }
                      }
                    }
                  }
                  JOINT LeftHandRing1
                  {
                    OFFSET 2.882606 -0.309162 0.107445
                    CHANNELS 3 Zrotation Yrotation Xrotation
                    JOINT LeftHandRing2
                    {
                      OFFSET 6.033198 0.0 4e-06
                      CHANNELS 3 Zrotation Yrotation Xrotation
                      JOINT LeftHandRing3
                      {
                        OFFSET 4.350578 3e-06 0.0
                        CHANNELS 3 Zrotation Yrotation Xrotation
                        JOINT LeftHandRing4
                        {
                          OFFSET 2.651321 2e-06 -7e-06
                          CHANNELS 3 Zrotation Yrotation Xrotation
                          JOINT LeftHandRingEnd
                          {
                            OFFSET 1.937663 1e-06 -4e-06
                            CHANNELS 3 Zrotation Yrotation Xrotation
                          }
                        }
                      }
                    }
                  }
                  JOINT LeftHandPinky1
                  {
                    OFFSET 2.865315 -1.525436 0.575687
                    CHANNELS 3 Zrotation Yrotation Xrotation
                    JOINT LeftHandPinky2
                    {
                      OFFSET 5.54936 1e-06 -8e-06
                      CHANNELS 3 Zrotation Yrotation Xrotation
                      JOINT LeftHandPinky3
                      {
                        OFFSET 3.070974 0.0 -4e-06
                        CHANNELS 3 Zrotation Yrotation Xrotation
                        JOINT LeftHandPinky4
                        {
                          OFFSET 1.549672 1e-06 0.0
                          CHANNELS 3 Zrotation Yrotation Xrotation
                          JOINT LeftHandPinkyEnd
                          {
                            OFFSET 1.952123 0.0 0.0
                            CHANNELS 3 Zrotation Yrotation Xrotation
                          }
                        }
                      }
                    }
                  }
                }
              }
            }
          }
          JOINT RightShoulder
          {
            OFFSET 23.161716 5.296122 -1.380114
            CHANNELS 3 Zrotation Yrotation Xrotation
            JOINT RightArm
            {
              OFFSET -16.027195 -2e-06 1.1e-05
              CHANNELS 3 Zrotation Yrotation Xrotation
              JOINT RightForeArm
              {
                OFFSET -28.736639 4e-06 2e-06
                CHANNELS 3 Zrotation Yrotation Xrotation
                JOINT RightHand
                {
                  OFFSET -27.133619 6e-06 0.0
                  CHANNELS 3 Zrotation Yrotation Xrotation
                  JOINT RightHandThumb1
                  {
                    OFFSET -2.274328 -3.351035 -0.83067
                    CHANNELS 3 Zrotation Yrotation Xrotation
                    JOINT RightHandThumb2
                    {
                      OFFSET -4.703594 -3e-06 2e-06
                      CHANNELS 3 Zrotation Yrotation Xrotation
                      JOINT RightHandThumb3
                      {
                        OFFSET -2.794935 -4e-06 -3e-06
                        CHANNELS 3 Zrotation Yrotation Xrotation
                        JOINT RightHandThumbEnd
                        {
                          OFFSET -3.183852 4e-06 1e-06
                          CHANNELS 3 Zrotation Yrotation Xrotation
                        }
                      }
                    }
                  }
                  JOINT RightHandIndex1
                  {
                    OFFSET -3.253496 -2.33755 -0.127667
                    CHANNELS 3 Zrotation Yrotation Xrotation
                    JOINT RightHandIndex2
                    {
                      OFFSET -6.344434 0.0 0.0
                      CHANNELS 3 Zrotation Yrotation Xrotation
                      JOINT RightHandIndex3
                      {
                        OFFSET -3.654871 0.0 -8e-06
                        CHANNELS 3 Zrotation Yrotation Xrotation
                        JOINT RightHandIndex4
                        {
                          OFFSET -2.327586 -1e-06 0.0
                          CHANNELS 3 Zrotation Yrotation Xrotation
                          JOINT RightHandIndexEnd
                          {
                            OFFSET -2.770001 3e-06 8e-06
                            CHANNELS 3 Zrotation Yrotation Xrotation
                          }
                        }
                      }
                    }
                  }
                  JOINT RightHandMiddle1
                  {
                    OFFSET -3.168223 -0.944764 0.411762
                    CHANNELS 3 Zrotation Yrotation Xrotation
                    JOINT RightHandMiddle2
                    {
                      OFFSET -6.266691 -1e-06 -4e-06
                      CHANNELS 3 Zrotation Yrotation Xrotation
                      JOINT RightHandMiddle3
                      {
                        OFFSET -4.348901 0.0 0.0
                        CHANNELS 3 Zrotation Yrotation Xrotation
                        JOINT RightHandMiddle4
                        {
                          OFFSET -3.00024 2e-06 -4e-06
                          CHANNELS 3 Zrotation Yrotation Xrotation
                          JOINT RightHandMiddleEnd
                          {
                            OFFSET -2.321477 -4e-06 -4e-06
                            CHANNELS 3 Zrotation Yrotation Xrotation
                          }
                        }
                      }
                    }
                  }
                  JOINT RightHandRing1
                  {
                    OFFSET -2.885654 0.293261 -0.119232
                    CHANNELS 3 Zrotation Yrotation Xrotation
                    JOINT RightHandRing2
                    {
                      OFFSET -6.032835 -1e-06 -4e-06
                      CHANNELS 3 Zrotation Yrotation Xrotation
                      JOINT RightHandRing3
                      {
                        OFFSET -4.33881 0.0 -4e-06
                        CHANNELS 3 Zrotation Yrotation Xrotation
                        JOINT RightHandRing4
                        {
                          OFFSET -2.654903 -4e-06 -4e-06
                          CHANNELS 3 Zrotation Yrotation Xrotation
                          JOINT RightHandRingEnd
                          {
                            OFFSET -1.935122 0.0 4e-06
                            CHANNELS 3 Zrotation Yrotation Xrotation
                          }
                        }
                      }
                    }
                  }
                  JOINT RightHandPinky1
                  {
                    OFFSET -2.866241 1.503904 -0.60527
                    CHANNELS 3 Zrotation Yrotation Xrotation
                    JOINT RightHandPinky2
                    {
                      OFFSET -5.553177 -2e-06 0.0
                      CHANNELS 3 Zrotation Yrotation Xrotation
                      JOINT RightHandPinky3
                      {
                        OFFSET -3.062664 -1e-06 -4e-06
                        CHANNELS 3 Zrotation Yrotation Xrotation
                        JOINT RightHandPinky4
                        {
                          OFFSET -1.546529 2e-06 4e-06
                          CHANNELS 3 Zrotation Yrotation Xrotation
                          JOINT RightHandPinkyEnd
                          {
                            OFFSET -1.952341 0.0 -4e-06
                            CHANNELS 3 Zrotation Yrotation Xrotation
                          }
                        }
                      }
                    }
                  }
                }
              }
            }
          }
        }
      }
    }
    JOINT LeftLeg
    {
      OFFSET -8.443107 2.567604 10.043214
      CHANNELS 3 Zrotation Yrotation Xrotation
      JOINT LeftShin
      {
        OFFSET 43.229198 1e-06 -1e-06
        CHANNELS 3 Zrotation Yrotation Xrotation
        JOINT LeftFoot
        {
          OFFSET 42.298611 1e-06 1e-06
          CHANNELS 3 Zrotation Yrotation Xrotation
          JOINT LeftToeBase
          {
            OFFSET 14.165858 1e-06 0.0
            CHANNELS 3 Zrotation Yrotation Xrotation
            JOINT LeftToeEnd
            {
              OFFSET 6.7141 -0.234461 0.0
              CHANNELS 3 Zrotation Yrotation Xrotation
            }
          }
        }
      }
    }
    JOINT RightLeg
    {
      OFFSET -8.303923 2.592729 -10.047278
      CHANNELS 3 Zrotation Yrotation Xrotation
      JOINT RightShin
      {
        OFFSET -43.369682 0.0 1e-06
        CHANNELS 3 Zrotation Yrotation Xrotation
        JOINT RightFoot
        {
          OFFSET -42.260784 4e-06 2e-06
          CHANNELS 3 Zrotation Yrotation Xrotation
          JOINT RightToeBase
          {
            OFFSET -14.222245 -2e-06 -1e-06
            CHANNELS 3 Zrotation Yrotation Xrotation
            JOINT RightToeEnd
            {
              OFFSET -6.660062 0.232574 -2e-06
              CHANNELS 3 Zrotation Yrotation Xrotation
            }
          }
        }
      }
    }
  }
}
MOTION
Frames: 4
Frame Time: 0.03333333333333333
0.0 0.0 0.0 0.0 -0.0 0.0 -4.218904 49.038738 151.2314 97.653343 -57.458893 83.013451 11.741158 -4.154824 -0.841155 -5.941711 -1.908313 0.565025 20.852686 -4.438833 -2.012508 32.094555 4.111867 4.337523 -2.707359 -1.449663 1.891502 -28.060783 -0.55025 0.988279 6e-06 -0.0 -0.0 -0.178458 -0.09688 -0.002363 -0.060974 -0.157798 0.044944 -0.085055 -0.035325 -0.071288 -57.0634 -72.599884 69.930527 88.005371 -13.719678 -25.907312 28.757641 -2.052369 -0.612812 36.869682 77.08461 42.248795 17.636623 -26.322737 52.411201 -19.466669 -14.395602 29.410395 1e-06 -8.774824 -1e-06 15.014113 -18.459911 7.170968 -0.609775 -1.795653 -3.889328 -4.807091 -11.046813 -2.93785 3e-06 -20.976023 -0.0 -5.019972 -25.033562 -4.03188 6e-06 0.0 3e-06 -10.634534 -5.686973 -3.565588 10.573274 -17.922958 -3.113902 3e-06 -13.821213 1e-06 -0.501778 -31.181519 -4.027016 -12.421674 -60.391968 9.860758 -13.982714 -7.150198 -2.875041 13.772731 -8.401497 -3.218244 0.347734 -34.211555 0.771653 -0.963029 -17.733374 2.621018 -0.0 0.0 -0.0 -17.346424 -20.095226 -4.201779 21.757561 -1.638375 3.866426 1e-06 -6.338826 0.0 -1.697589 -22.591751 -6.194008 0.0 -5e-06 -3e-06 171.504913 -72.794945 15.064508 79.189873 8.346043 -44.641609 19.960476 -1.438294 -0.356495 -4.733055 62.914955 4.048062 22.182117 -20.375898 49.933327 -16.701818 -16.74353 28.476538 -1e-06 -12.690603 0.0 17.252224 -17.801918 2.182918 -0.105919 -1.513857 -4.275883 -5.03904 -5.612871 -2.953557 3e-06 -11.020525 -2e-06 -6.111298 -15.89533 -3.840472 1e-06 0.0 1e-06 -10.283371 -5.680289 -4.341839 11.028297 -11.302406 -2.372633 -1.384267 -14.238586 -6.320122 -0.625438 -26.924192 -3.827602 -3.34608 -50.346653 -4.815568 -13.708526 -7.363476 -3.72094 18.141153 -14.052739 -3.242676 6e-06 -18.787271 -2e-06 -0.429712 -8.456045 2.555505 0.0 0.0 -1e-06 -15.923536 -20.094482 -5.473585 30.419218 -7.190827 1.735924 3e-06 -8.162925 -1e-06 -1.861901 -22.861473 -6.167942 0.0 -4e-06 -2e-06 94.635063 -8.992846 -0.245756 132.739548 0.729976 0.983568 -71.719917 16.086529 -6.996766 -19.950397 1.437093 2.179418 -0.999999 0.0 0.0 -36.211628 -1.583852 6.128345 84.622658 -0.154695 -0.220597 -72.104004 12.416269 -8.954898 -23.289101 0.719371 1.22528 -1.000002 0.0 -0.0 
0.0 0.0 0.0 0.0 -0.0 0.0 -3.763212 48.59359 152.716873 97.378677 -57.239906 82.110268 11.579326 -4.270813 -0.881002 -6.003987 -1.919539 0.66006 20.7845 -4.252141 -1.87357 32.227623 3.78563 4.21581 -2.696823 -1.3996 2.16484 -28.524372 -0.592171 1.456971 6e-06 -0.0 0.0 -0.185386 -0.106905 -0.000367 -0.071451 -0.178663 0.057152 -0.077886 -0.037398 -0.078856 -57.113014 -72.382111 70.161263 87.204239 -15.810097 -25.684353 29.586979 -1.912625 -0.697217 39.020462 77.455772 45.319523 17.636635 -26.322729 52.411179 -19.46666 -14.395598 29.410385 -0.0 -8.77482 -2e-06 15.197311 -18.354584 7.050238 -0.609776 -1.795653 -3.889328 -4.807087 -11.046811 -2.93785 5e-06 -20.976015 1e-06 -5.019969 -25.033554 -4.031878 6e-06 0.0 -0.0 -10.634531 -5.686969 -3.565587 10.573272 -17.922949 -3.113899 5e-06 -13.821206 1e-06 -0.501779 -31.181505 -4.027013 -12.210483 -60.444511 9.666914 -13.982712 -7.150195 -2.875043 13.772724 -8.401495 -3.21824 0.347735 -34.211544 0.771654 -0.963028 -17.733368 2.62102 -0.0 -0.0 -1e-06 -17.346415 -20.095213 -4.20178 21.757555 -1.638375 3.866428 0.0 -6.338825 1e-06 -1.697589 -22.591742 -6.194004 1e-06 -3e-06 -4e-06 170.09906 -72.553909 16.463003 80.882904 7.418039 -42.637165 20.282478 -1.281395 -0.361779 -6.339724 64.028961 2.777297 22.182106 -20.375887 49.933308 -16.701811 -16.74353 28.47653 -3e-06 -12.690601 1e-06 17.319139 -17.831659 2.211341 -0.10592 -1.513856 -4.27588 -5.039037 -5.612868 -2.953557 5e-06 -11.02052 -2e-06 -6.111298 -15.895326 -3.84047 -3e-06 0.0 0.0 -10.283371 -5.680286 -4.341836 11.028296 -11.302403 -2.372634 -1.384267 -14.238579 -6.32012 -0.625436 -26.924185 -3.8276 -3.418191 -50.474831 -4.717138 -13.708525 -7.363472 -3.720938 18.14115 -14.052738 -3.242676 6e-06 -18.787266 -3e-06 -0.429711 -8.456041 2.555504 0.0 1e-06 -1e-06 -15.923532 -20.094477 -5.473584 30.41921 -7.190827 1.735922 3e-06 -8.162919 -0.0 -1.861902 -22.861467 -6.167941 1e-06 -2e-06 -1e-06 95.267456 -9.0744 0.127688 131.944626 0.870479 1.018717 -69.178368 16.227894 -7.421082 -20.02298 1.420503 2.228637 -0.999999 0.0 1e-06 -34.091183 -1.290998 7.008305 82.306908 -0.239175 -0.223744 -71.482353 12.121883 -8.425109 -23.067215 0.726736 1.18462 -1.000002 -0.0 1e-06 
0.0 0.0 0.0 0.0 -0.0 0.0 -3.322614 48.197624 154.154541 97.490799 -57.282803 81.436234 11.37342 -4.316607 -0.998453 -6.104428 -1.959307 0.596743 20.597227 -4.055787 -1.934629 32.147583 3.588225 4.099802 -2.715053 -1.329205 2.382585 -28.984278 -0.713313 1.848424 6e-06 0.0 0.0 -0.196855 -0.115865 0.002273 -0.13397 -0.196884 0.053667 -0.131574 -0.038431 -0.067394 -57.04689 -72.550766 70.248947 86.231232 -17.902369 -25.567665 30.190205 -1.791807 -0.724139 40.754169 77.740685 47.506653 17.636625 -26.322729 52.411182 -19.46665 -14.395596 29.410385 0.0 -8.774819 -2e-06 15.38283 -18.294632 6.908968 -0.609777 -1.795654 -3.889327 -4.807088 -11.046809 -2.937849 4e-06 -20.976015 2e-06 -5.019971 -25.033552 -4.031878 6e-06 0.0 -2e-06 -10.634531 -5.686967 -3.565587 10.573271 -17.922947 -3.113899 4e-06 -13.821205 2e-06 -0.501779 -31.181498 -4.027013 -12.084151 -60.464367 9.518741 -13.982711 -7.150198 -2.875041 13.772727 -8.401489 -3.21824 0.347732 -34.211544 0.771658 -0.963029 -17.733368 2.621019 -0.0 -0.0 1e-06 -17.346413 -20.095215 -4.201779 21.757555 -1.638374 3.866428 1e-06 -6.338825 1e-06 -1.69759 -22.591742 -6.194004 1e-06 -2e-06 -2e-06 168.00676 -72.293243 18.532867 82.660545 6.449147 -40.6409 20.5469 -1.15868 -0.331176 -7.947176 65.214539 1.330297 22.182116 -20.375895 49.933308 -16.701811 -16.743526 28.476519 1e-06 -12.6906 -2e-06 17.299124 -17.884106 2.253475 -0.10592 -1.513855 -4.27588 -5.03904 -5.612871 -2.953554 3e-06 -11.020525 -1e-06 -6.1113 -15.895328 -3.840469 -2e-06 0.0 0.0 -10.283371 -5.680288 -4.341837 11.028293 -11.302402 -2.372632 -1.38427 -14.238581 -6.320118 -0.625439 -26.924179 -3.8276 -3.508925 -50.500004 -4.664955 -13.708527 -7.363475 -3.720939 18.141148 -14.052739 -3.242672 4e-06 -18.78727 -2e-06 -0.429711 -8.456041 2.555504 -0.0 0.0 -1e-06 -15.923538 -20.094481 -5.473582 30.41921 -7.190823 1.735925 2e-06 -8.162921 -0.0 -1.861904 -22.861469 -6.167942 0.0 -2e-06 -1e-06 96.36763 -8.727301 0.338686 131.039322 1.005505 1.002199 -67.471977 15.940621 -8.06097 -19.242334 1.405034 2.3225 -0.999999 0.0 -0.0 -32.294994 -1.556172 7.486495 80.046638 -0.348693 -0.215351 -71.093483 11.820967 -7.921182 -22.926373 0.742638 1.158867 -1.000002 -0.0 0.0 
0.0 0.0 0.0 0.0 -0.0 0.0 -2.931125 47.788887 155.471588 98.015732 -57.465736 81.048897 11.171932 -4.32081 -1.201467 -6.137569 -1.920776 0.474259 20.348059 -3.96173 -2.341743 31.776171 3.688912 4.108572 -2.700804 -1.378652 2.432359 -29.221821 -0.858671 2.211515 6e-06 0.0 0.0 -0.192884 -0.166469 0.01161 -0.128922 -0.246828 0.070985 -0.126654 -0.086429 -0.066614 -56.74419 -72.903114 70.001282 85.390167 -19.826267 -25.551189 30.429976 -1.654049 -0.595817 40.409775 77.969284 46.955635 17.636633 -26.322731 52.41119 -19.466658 -14.395597 29.410389 0.0 -8.774821 -2e-06 15.318769 -18.373549 6.713976 -0.609777 -1.795654 -3.889327 -4.80709 -11.046811 -2.93785 4e-06 -20.976011 -1e-06 -5.019968 -25.033548 -4.031881 6e-06 1e-06 1e-06 -10.634534 -5.686969 -3.565588 10.573276 -17.922953 -3.1139 4e-06 -13.821211 2e-06 -0.501778 -31.181505 -4.027015 -12.223556 -60.285553 9.23561 -13.982714 -7.150197 -2.875042 13.772732 -8.401491 -3.218241 0.347735 -34.211544 0.771655 -0.963029 -17.733366 2.62102 0.0 -0.0 -1e-06 -17.346422 -20.095217 -4.201782 21.757561 -1.638376 3.866429 1e-06 -6.338824 1e-06 -1.697591 -22.591743 -6.194005 0.0 -3e-06 -2e-06 165.373337 -72.143852 21.193161 84.398392 5.663327 -38.734715 20.638575 -1.133093 -0.277811 -9.37441 66.407639 -0.255866 22.182119 -20.375898 49.933327 -16.701813 -16.74353 28.476532 -1e-06 -12.690603 -2e-06 17.175762 -18.013626 2.345345 -0.105919 -1.513855 -4.275882 -5.039041 -5.612871 -2.953557 4e-06 -11.020525 -2e-06 -6.111301 -15.895334 -3.840471 1e-06 1e-06 1e-06 -10.283372 -5.680288 -4.341838 11.028297 -11.302406 -2.372633 -1.384269 -14.238585 -6.32012 -0.625439 -26.924189 -3.8276 -3.639301 -50.333363 -4.659118 -13.708526 -7.363475 -3.72094 18.141151 -14.052739 -3.242674 5e-06 -18.787271 -2e-06 -0.429712 -8.456045 2.555504 -0.0 0.0 -0.0 -15.923539 -20.094482 -5.473584 30.419218 -7.190827 1.735927 2e-06 -8.162925 0.0 -1.861905 -22.861471 -6.16794 0.0 -3e-06 -2e-06 97.781143 -7.902914 0.69499 129.575027 1.190112 0.940733 -65.75808 16.731512 -8.44247 -18.96435 1.426091 2.351537 -0.999999 0.0 0.0 -30.750765 -2.313952 7.613217 77.985443 -0.393496 -0.221974 -70.672653 11.401233 -7.291486 -22.993036 0.777347 1.122599 -1.000002 0.0 0.0 
